HIERARCHY
ROOT Hips
{
	OFFSET 0.00000 0.00000 0.00000
	CHANNELS 6 Xposition Yposition Zposition Zrotation Yrotation Xrotation 
	JOINT LHipJoint
	{
		OFFSET 0 0 0
		CHANNELS 3 Zrotation Yrotation Xrotation
		JOINT LeftUpLeg
		{
			OFFSET 1.81638 -1.86202 0.89635
			CHANNELS 3 Zrotation Yrotation Xrotation
			JOINT LeftLeg
			{
				OFFSET 2.63464 -7.23861 0.00000
				CHANNELS 3 Zrotation Yrotation Xrotation
				JOINT LeftFoot
				{
					OFFSET 2.45871 -6.75336 0.00000
					CHANNELS 3 Zrotation Yrotation Xrotation
					JOINT LeftToeBase
					{
						OFFSET 0.34235 -0.94059 2.20020
						CHANNELS 3 Zrotation Yrotation Xrotation
						End Site
						{
							OFFSET 0.00000 -0.00000 1.18611
						}
					}
				}
			}
		}
	}
	JOINT RHipJoint
	{
		OFFSET 0 0 0
		CHANNELS 3 Zrotation Yrotation Xrotation
		JOINT RightUpLeg
		{
			OFFSET -1.84405 -1.86203 0.89635
			CHANNELS 3 Zrotation Yrotation Xrotation
			JOINT RightLeg
			{
				OFFSET -2.71067 -7.44751 0.00000
				CHANNELS 3 Zrotation Yrotation Xrotation
				JOINT RightFoot
				{
					OFFSET -2.47159 -6.79060 0.00000
					CHANNELS 3 Zrotation Yrotation Xrotation
					JOINT RightToeBase
					{
						OFFSET -0.26223 -0.72048 2.36007
						CHANNELS 3 Zrotation Yrotation Xrotation
						End Site
						{
							OFFSET -0.00000 -0.00000 1.23343
						}
					}
				}
			}
		}
	}
	JOINT LowerBack
	{
		OFFSET 0 0 0
		CHANNELS 3 Zrotation Yrotation Xrotation
		JOINT Spine
		{
			OFFSET 0.02089 1.99248 -0.22512
			CHANNELS 3 Zrotation Yrotation Xrotation
			JOINT Spine1
			{
				OFFSET 0.01476 2.01356 -0.03079
				CHANNELS 3 Zrotation Yrotation Xrotation
				JOINT Neck
				{
					OFFSET 0 0 0
					CHANNELS 3 Zrotation Yrotation Xrotation
					JOINT Neck1
					{
						OFFSET 0.04846 1.65098 0.06663
						CHANNELS 3 Zrotation Yrotation Xrotation
						JOINT Head
						{
							OFFSET -0.06061 1.60634 -0.07565
							CHANNELS 3 Zrotation Yrotation Xrotation
							End Site
							{
								OFFSET -0.02954 1.73562 -0.03642
							}
						}
					}
				}
				JOINT LeftShoulder
				{
					OFFSET 0 0 0
					CHANNELS 3 Zrotation Yrotation Xrotation
					JOINT LeftArm
					{
						OFFSET 3.45234 1.47051 -0.06993
						CHANNELS 3 Zrotation Yrotation Xrotation
						JOINT LeftForeArm
						{
							OFFSET 5.49313 -0.00000 0.00000
							CHANNELS 3 Zrotation Yrotation Xrotation
							JOINT LeftHand
							{
								OFFSET 3.29037 -0.00000 0.00000
								CHANNELS 3 Zrotation Yrotation Xrotation
								JOINT LeftFingerBase
								{
									OFFSET 0 0 0
									CHANNELS 3 Zrotation Yrotation Xrotation
									JOINT LeftHandIndex1
									{
										OFFSET 0.72966 -0.00000 0.00000
										CHANNELS 3 Zrotation Yrotation Xrotation
										End Site
										{
											OFFSET 0.58827 -0.00000 0.00000
										}
									}
								}
								JOINT LThumb
								{
									OFFSET 0 0 0
									CHANNELS 3 Zrotation Yrotation Xrotation
									End Site
									{
										OFFSET 0.59725 -0.00000 0.59725
									}
								}
							}
						}
					}
				}
				JOINT RightShoulder
				{
					OFFSET 0 0 0
					CHANNELS 3 Zrotation Yrotation Xrotation
					JOINT RightArm
					{
						OFFSET -3.41935 1.44327 0.20453
						CHANNELS 3 Zrotation Yrotation Xrotation
						JOINT RightForeArm
						{
							OFFSET -5.23684 -0.00000 0.00000
							CHANNELS 3 Zrotation Yrotation Xrotation
							JOINT RightHand
							{
								OFFSET -3.38251 -0.00000 0.00000
								CHANNELS 3 Zrotation Yrotation Xrotation
								JOINT RightFingerBase
								{
									OFFSET 0 0 0
									CHANNELS 3 Zrotation Yrotation Xrotation
									JOINT RightHandIndex1
									{
										OFFSET -0.69145 -0.00000 0.00000
										CHANNELS 3 Zrotation Yrotation Xrotation
										End Site
										{
											OFFSET -0.55747 -0.00000 0.00000
										}
									}
								}
								JOINT RThumb
								{
									OFFSET 0 0 0
									CHANNELS 3 Zrotation Yrotation Xrotation
									End Site
									{
										OFFSET -0.56598 -0.00000 0.56598
									}
								}
							}
						}
					}
				}
			}
		}
	}
}
MOTION
Frames: 6
Frame Time: 0.0338983
0.00 0.00 0.00 -598.1200 80.8109 -550.9450 0.0000 0.0000 0.0000 -10.6635 -20.1858 -39.1785 24.2337 19.5647 102.4653 0.7458 -12.5593 25.2712 0.4767 4.4279 12.2838 0.0000 0.0000 0.0000 13.7430 -13.8483 -62.0725 -32.7582 -15.5322 130.2171 -0.7488 10.3907 23.2272 -1.7428 -8.3085 23.6552 9.4791 -5.8604 40.8392 0.4727 -2.3201 3.8947 -3.3643 -1.2266 -15.6851 11.8103 -5.1767 -4.4853 -6.1026 -7.7015 -27.4768 -3.6883 -3.9259 -8.5427 -0.0000 -0.0000 0.0000 -77.1211 -51.4328 51.6964 18.8744 -29.2623 -4.9693 -0.0000 -0.0000 25.3927 76.2322 -30.4489 -64.1959 -7.1250 0.0000 -0.0000 24.4951 -33.8128 -35.7548 -0.0000 -0.0000 0.0000 -8.4980 64.1717 -1.7788 -26.9177 38.1006 -9.4483 0.0000 0.0000 24.9857 -43.7769 2.8003 -2.6802 7.1250 -0.0000 -0.0000 -12.9520 -26.0627 -6.0920
0.00 0.00 0.00 -704.6270 84.2516 -649.5590 0.0000 0.0000 0.0000 -4.8178 5.7354 -62.4988 29.0277 17.9215 117.3084 0.1669 -18.2543 27.1968 1.1251 6.7375 18.9398 0.0000 0.0000 0.0000 17.4733 13.5138 -52.9360 -30.3150 -17.2289 121.5698 -0.7511 2.9307 17.6879 -2.5717 -9.9671 28.8703 5.6743 0.9545 38.6221 -3.1266 3.3568 3.0357 -8.0642 1.1352 -15.2904 16.7551 -2.9526 -4.9743 -15.9234 -6.3351 -24.3746 -8.1233 -2.9298 -7.5802 0.0000 0.0000 0.0000 -68.5725 -47.3871 53.9708 16.7265 -26.4958 -3.9645 -0.0000 -0.0000 24.5032 79.4694 -30.1097 -69.6675 -7.1250 0.0000 -0.0000 26.9132 -37.5471 -39.8014 0.0000 0.0000 0.0000 8.1668 65.3993 8.4871 -25.7971 37.0076 -8.7652 0.0000 0.0000 25.1445 -54.4338 2.0012 -2.7960 7.1250 -0.0000 -0.0000 -20.8368 -26.3578 -10.0584
0.00 0.00 0.00 -750.7500 82.9716 -702.1760 0.0000 0.0000 0.0000 1.6240 5.6734 -68.8309 31.3982 16.5445 125.2976 -0.3371 -20.1578 25.7889 0.8222 5.7857 16.1639 0.0000 0.0000 0.0000 25.3852 15.5208 -35.7315 -26.0653 -19.0941 107.9950 -0.8243 1.8232 17.9025 -2.3837 -9.6233 27.7654 5.2721 4.0539 35.9665 -5.0501 6.6673 4.1099 -11.1544 2.8049 -12.4669 11.1496 -2.8459 -4.6125 -11.2980 -5.0782 -24.9253 -5.5324 -2.0496 -7.3952 -0.0000 0.0000 0.0000 -54.3032 -44.7779 62.5292 27.6279 -38.7714 -9.8898 -0.0000 -0.0000 19.0072 29.7683 -17.8076 -9.9219 -7.1250 0.0000 -0.0000 1.1396 9.6764 -0.9320 -0.0000 0.0000 0.0000 44.9255 63.2313 26.9940 -16.5919 26.3167 -3.9047 0.0000 0.0000 36.8130 -63.0445 2.2242 -4.3640 7.1250 -0.0000 -0.0000 -26.5168 -24.8197 -14.4821
0.00 0.00 0.00 -767.5350 83.4472 -719.1240 0.0000 0.0000 0.0000 -2.9288 2.3335 -60.8688 30.7996 16.9350 123.2194 0.4808 -13.6628 24.2062 1.1835 6.9041 19.4317 0.0000 0.0000 0.0000 23.9231 12.4416 -27.4108 -23.2042 -19.7520 99.4059 -0.5311 3.0669 15.2261 -2.0503 -8.9701 25.7019 3.4070 3.1450 35.6307 -5.2917 4.7201 2.6610 -9.7680 1.8252 -14.5290 6.2284 -1.7797 -2.9176 -5.1599 -2.2965 -26.1528 -2.7413 -0.6946 -7.6933 0.0000 -0.0000 0.0000 -33.3609 -54.0284 48.9554 37.2799 -46.3732 -16.4423 -0.0000 -0.0000 13.1307 35.0223 -15.8743 -10.8512 -7.1250 0.0000 -0.0000 4.8203 10.8830 -3.8375 0.0000 -0.0000 0.0000 68.0246 60.1419 38.6753 -12.7347 20.8973 -2.3578 0.0000 0.0000 47.7504 -67.7017 2.6888 -6.5259 7.1250 -0.0000 -0.0000 -29.0610 -22.7640 -17.9289
0.00 0.00 0.00 -796.0890 87.0283 -745.2090 0.0000 0.0000 0.0000 -3.3682 -5.1563 -57.1724 29.2292 17.8211 117.9651 0.3132 -14.6974 23.9303 1.0347 6.4699 18.1541 0.0000 0.0000 0.0000 22.6445 4.3821 -28.8488 -24.1925 -19.5732 102.3425 -0.3949 5.2468 14.9623 -1.2640 -7.1266 20.0910 3.9722 0.7012 38.3918 -6.7579 1.5356 0.4324 -10.7448 -0.0009 -18.9397 9.0860 -2.6237 -0.7521 -3.7750 -2.9840 -26.4389 -2.7003 -1.4678 -8.2807 0.0000 0.0000 0.0000 -15.0531 -68.1489 32.3901 29.3930 -40.3674 -11.0144 -0.0000 -0.0000 14.7980 36.8126 -14.9605 -10.9355 -7.1250 0.0000 -0.0000 6.1280 11.6036 -4.7984 0.0000 0.0000 0.0000 75.9782 53.6438 42.2993 -13.8917 22.5796 -2.7864 0.0000 0.0000 49.4468 -70.6353 3.0811 -8.6950 7.1250 -0.0000 -0.0000 -30.3931 -20.7839 -20.7132
0.00 0.00 0.00 -800.5030 81.8308 -746.1420 0.0000 0.0000 0.0000 -2.7532 -4.3526 -51.5225 27.2902 18.6749 111.7783 0.0039 -17.9976 25.5216 0.5170 4.6086 12.7954 0.0000 0.0000 0.0000 22.5324 4.4342 -45.4083 -28.6156 -18.1181 115.9762 -0.5510 1.7965 14.7871 -1.8349 -8.5133 24.2844 0.3923 0.2421 42.0807 -4.3536 -0.2585 -0.4493 -5.1950 -0.3371 -21.5760 3.6297 -0.6764 0.5382 -1.1119 -0.1399 -25.2413 -1.0400 0.1189 -7.8684 0.0000 0.0000 0.0000 -5.5031 -68.8349 4.2920 18.7788 -29.1428 -4.9226 -0.0000 -0.0000 22.7757 44.0840 -11.7554 -11.1623 -7.1250 0.0000 -0.0000 11.4417 14.0481 -8.4966 0.0000 0.0000 0.0000 79.0179 52.3352 57.9288 -18.2618 28.4912 -4.6735 0.0000 0.0000 44.9915 -73.8819 7.8611 -25.3279 7.1250 -0.0000 -0.0000 -29.3434 -5.8254 -30.6767
